<svg xmlns="http://www.w3.org/2000/svg" viewBox="0 0 380 80" fill="none">
  <g transform="translate(4, 10) scale(2.5)">
    <rect x="3.38" y="3.38" width="17.25" height="17.25" rx="2.18" fill="none" stroke="#3b82f6" stroke-miterlimit="10" stroke-width="1.92px"/>
    <rect x="7.21" y="7.21" width="9.58" height="9.58" rx="1.92" fill="none" stroke="#3b82f6" stroke-miterlimit="10" stroke-width="1.92px"/>
    <line x1="7.21" y1="0.5" x2="7.21" y2="2.42" stroke="#3b82f6" stroke-miterlimit="10" stroke-width="1.92px"/>
    <line x1="12" y1="0.5" x2="12" y2="2.42" stroke="#3b82f6" stroke-miterlimit="10" stroke-width="1.92px"/>
    <line x1="16.79" y1="0.5" x2="16.79" y2="2.42" stroke="#3b82f6" stroke-miterlimit="10" stroke-width="1.92px"/>
    <line x1="7.21" y1="21.58" x2="7.21" y2="23.5" stroke="#3b82f6" stroke-miterlimit="10" stroke-width="1.92px"/>
    <line x1="12" y1="21.58" x2="12" y2="23.5" stroke="#3b82f6" stroke-miterlimit="10" stroke-width="1.92px"/>
    <line x1="16.79" y1="21.58" x2="16.79" y2="23.5" stroke="#3b82f6" stroke-miterlimit="10" stroke-width="1.92px"/>
    <line x1="0.5" y1="16.79" x2="2.42" y2="16.79" stroke="#3b82f6" stroke-miterlimit="10" stroke-width="1.92px"/>
    <line x1="0.5" y1="12" x2="2.42" y2="12" stroke="#3b82f6" stroke-miterlimit="10" stroke-width="1.92px"/>
    <line x1="0.5" y1="7.21" x2="2.42" y2="7.21" stroke="#3b82f6" stroke-miterlimit="10" stroke-width="1.92px"/>
    <line x1="21.58" y1="16.79" x2="23.5" y2="16.79" stroke="#3b82f6" stroke-miterlimit="10" stroke-width="1.92px"/>
    <line x1="21.58" y1="12" x2="23.5" y2="12" stroke="#3b82f6" stroke-miterlimit="10" stroke-width="1.92px"/>
    <line x1="21.58" y1="7.21" x2="23.5" y2="7.21" stroke="#3b82f6" stroke-miterlimit="10" stroke-width="1.92px"/>
  </g>
  <text x="78" y="42" font-family="'Segoe UI', Arial, Helvetica, sans-serif" font-size="34" font-weight="800" fill="#0f172a" letter-spacing="-1">Nordic</text>
  <text x="78" y="72" font-family="'Segoe UI', Arial, Helvetica, sans-serif" font-size="34" font-weight="800" fill="#3b82f6" letter-spacing="-1">Devices</text>
</svg>